<svg width="200.9" height="74" viewBox="0 0 252 105" fill="none" xmlns="http://www.w3.org/2000/svg">
<g id="Frame 3">
<g id="Group 1">
<path id="Vector 1" d="M87 73L1 70L83.5 84.5L93.3654 93.873L106.298 99.545L122.079 102L136.705 99.545L147.625 96.4127L165.5 84.5L249 70L162 73L160 83.5238L151.142 90.3175L141 94.8889L131.5 98H118.5L106.298 94.8889L98.8918 90.3175L88 79L87 73Z" fill="#E3E3DB" stroke="#E3E3DB" stroke-width="1.22727"/>
<path id="Ellipse 1" d="M77.2666 74.8548C79.7619 83.4614 85.8182 91.1313 94.4435 96.608C103.069 102.085 113.751 105.044 124.741 105C135.731 104.956 146.377 101.911 154.934 96.3659C163.491 90.8205 169.452 83.1024 171.841 74.4763L161.51 72.6265C159.642 79.3702 154.982 85.404 148.292 89.7394C141.603 94.0747 133.28 96.4545 124.689 96.4889C116.097 96.5233 107.746 94.2102 101.003 89.9286C94.2595 85.6471 89.5248 79.6509 87.5741 72.9224L77.2666 74.8548Z" fill="#E3E3DB"/>
</g>
<g id="Group 2">
<path id="Vector 1_2" d="M163 40L249 43L166.5 28.5L156.635 19.127L143.702 13.455L127.921 11L113.295 13.455L102.375 16.5873L84.5 28.5L1 43L88 40L90 29.4762L98.8582 22.6825L109 18.1111L118.5 15H131.5L143.702 18.1111L151.108 22.6825L162 34L163 40Z" fill="#E3E3DB" stroke="#E3E3DB" stroke-width="1.22727"/>
<path id="Ellipse 1_2" d="M172.733 38.1452C170.238 29.5386 164.182 21.8687 155.557 16.392C146.931 10.9152 136.249 7.9565 125.259 8.00048C114.269 8.04446 103.623 11.0886 95.0661 16.6341C86.5091 22.1795 80.5479 29.8976 78.1593 38.5237L88.4902 40.3735C90.3576 33.6298 95.0178 27.596 101.708 23.2606C108.397 18.9253 116.72 16.5455 125.311 16.5111C133.903 16.4767 142.254 18.7898 148.997 23.0714C155.74 27.3529 160.475 33.3491 162.426 40.0776L172.733 38.1452Z" fill="#E3E3DB"/>
</g>
<path id="Vector 2" d="M146.5 34L124 62L111 54.5" stroke="#FF0000" stroke-opacity="0.76" stroke-width="3.5"/>
<g id="Group 3">
<rect id="Rectangle 1" x="115" y="76" width="22" height="12" fill="#FF0000" fill-opacity="0.76"/>
<path id="RD" d="M118.759 86V77.2727H122.202C122.861 77.2727 123.423 77.3906 123.889 77.6264C124.358 77.8594 124.714 78.1903 124.959 78.6193C125.206 79.0455 125.33 79.5469 125.33 80.1236C125.33 80.7031 125.205 81.2017 124.955 81.6193C124.705 82.0341 124.342 82.3523 123.868 82.5739C123.396 82.7955 122.825 82.9062 122.155 82.9062H119.849V81.4233H121.857C122.209 81.4233 122.501 81.375 122.734 81.2784C122.967 81.1818 123.141 81.0369 123.254 80.8438C123.371 80.6506 123.429 80.4105 123.429 80.1236C123.429 79.8338 123.371 79.5895 123.254 79.3906C123.141 79.1918 122.966 79.0412 122.73 78.9389C122.497 78.8338 122.203 78.7812 121.848 78.7812H120.604V86H118.759ZM123.472 82.0284L125.641 86H123.604L121.482 82.0284H123.472ZM129.727 86H126.634V77.2727H129.753C130.631 77.2727 131.386 77.4474 132.02 77.7969C132.653 78.1435 133.141 78.642 133.482 79.2926C133.825 79.9432 133.997 80.7216 133.997 81.6278C133.997 82.5369 133.825 83.3182 133.482 83.9716C133.141 84.625 132.651 85.1264 132.011 85.4759C131.375 85.8253 130.614 86 129.727 86ZM128.479 84.419H129.651C130.196 84.419 130.655 84.3224 131.027 84.1293C131.402 83.9332 131.683 83.6307 131.871 83.2216C132.061 82.8097 132.156 82.2784 132.156 81.6278C132.156 80.983 132.061 80.456 131.871 80.0469C131.683 79.6378 131.403 79.3366 131.031 79.1435C130.659 78.9503 130.2 78.8537 129.655 78.8537H128.479V84.419Z" fill="#E3E3DB"/>
</g>
<path id="WATCHES" d="M173.184 62L169.967 51.0909H173.269L174.761 57.8026H174.846L176.614 51.0909H179.214L180.982 57.8239H181.067L182.559 51.0909H185.862L182.644 62H179.81L177.957 55.9062H177.871L176.018 62H173.184ZM188.38 62H185.184L188.785 51.0909H192.833L196.434 62H193.238L190.851 54.0952H190.766L188.38 62ZM187.783 57.696H193.792V59.9119H187.783V57.696ZM195.809 53.4773V51.0909H205.291V53.4773H202.009V62H199.09V53.4773H195.809ZM216.077 55.1818H213.073C213.052 54.9332 212.995 54.7077 212.903 54.5053C212.814 54.3029 212.689 54.1289 212.53 53.9833C212.373 53.8342 212.183 53.7205 211.96 53.6424C211.736 53.5607 211.482 53.5199 211.198 53.5199C210.701 53.5199 210.28 53.6406 209.936 53.8821C209.595 54.1236 209.335 54.4698 209.158 54.9208C208.984 55.3718 208.897 55.9134 208.897 56.5455C208.897 57.2131 208.986 57.7724 209.163 58.2234C209.344 58.6708 209.605 59.0082 209.946 59.2354C210.287 59.4592 210.697 59.571 211.177 59.571C211.45 59.571 211.695 59.5373 211.912 59.4698C212.128 59.3988 212.317 59.2976 212.476 59.1662C212.636 59.0348 212.766 58.8768 212.865 58.6921C212.968 58.5039 213.037 58.2926 213.073 58.0582L216.077 58.0795C216.042 58.5412 215.912 59.0117 215.688 59.4911C215.465 59.967 215.147 60.4073 214.735 60.8121C214.327 61.2134 213.82 61.5366 213.217 61.7816C212.613 62.0266 211.912 62.1491 211.113 62.1491C210.111 62.1491 209.213 61.9343 208.417 61.5046C207.626 61.0749 206.999 60.4428 206.537 59.6083C206.079 58.7738 205.85 57.7528 205.85 56.5455C205.85 55.331 206.084 54.3082 206.553 53.4773C207.022 52.6428 207.654 52.0124 208.449 51.5863C209.245 51.1566 210.133 50.9418 211.113 50.9418C211.802 50.9418 212.436 51.0359 213.014 51.2241C213.593 51.4123 214.101 51.6875 214.538 52.0497C214.975 52.4084 215.326 52.8505 215.593 53.3761C215.859 53.9016 216.02 54.5036 216.077 55.1818ZM217.421 62V51.0909H220.383V55.3523H224.303V51.0909H227.265V62H224.303V57.7386H220.383V62H217.421ZM228.671 62V51.0909H236.533V53.4773H231.633V55.3523H236.128V57.7386H231.633V59.6136H236.512V62H228.671ZM243.883 54.5C243.854 54.1449 243.721 53.8679 243.483 53.669C243.249 53.4702 242.892 53.3707 242.412 53.3707C242.107 53.3707 241.857 53.408 241.661 53.4826C241.47 53.5536 241.328 53.6513 241.235 53.7756C241.143 53.8999 241.095 54.0419 241.091 54.2017C241.084 54.3331 241.107 54.4521 241.161 54.5586C241.218 54.6616 241.306 54.7557 241.427 54.8409C241.548 54.9226 241.702 54.9972 241.89 55.0646C242.079 55.1321 242.302 55.1925 242.562 55.2457L243.456 55.4375C244.06 55.5653 244.577 55.734 245.007 55.9435C245.436 56.1531 245.788 56.3999 246.061 56.6839C246.335 56.9645 246.535 57.2805 246.663 57.6321C246.795 57.9837 246.862 58.3672 246.866 58.7827C246.862 59.5 246.683 60.1072 246.328 60.6044C245.972 61.1016 245.465 61.4798 244.804 61.739C244.147 61.9982 243.357 62.1278 242.434 62.1278C241.486 62.1278 240.658 61.9876 239.952 61.707C239.248 61.4265 238.702 60.995 238.311 60.4126C237.924 59.8267 237.729 59.0774 237.725 58.1648H240.537C240.555 58.4986 240.639 58.7791 240.788 59.0064C240.937 59.2337 241.146 59.4059 241.416 59.5231C241.69 59.6403 242.015 59.6989 242.391 59.6989C242.707 59.6989 242.972 59.6598 243.185 59.5817C243.398 59.5036 243.559 59.3952 243.67 59.2567C243.78 59.1183 243.836 58.9602 243.84 58.7827C243.836 58.6158 243.781 58.4702 243.675 58.3459C243.572 58.218 243.401 58.1044 243.164 58.005C242.926 57.902 242.604 57.8061 242.199 57.7173L241.113 57.483C240.147 57.2734 239.385 56.9237 238.828 56.4336C238.274 55.94 237.998 55.267 238.002 54.4148C237.998 53.7223 238.183 53.1168 238.556 52.5984C238.932 52.0763 239.453 51.6697 240.117 51.3786C240.784 51.0874 241.55 50.9418 242.412 50.9418C243.293 50.9418 244.055 51.0891 244.698 51.3839C245.34 51.6786 245.836 52.0941 246.184 52.6303C246.535 53.163 246.713 53.7862 246.716 54.5H243.883Z" fill="#E3E3DB"/>
<path id="THE" d="M30.4654 52.4773V50.0909H39.9469V52.4773H36.6657V61H33.7466V52.4773H30.4654ZM41.0615 61V50.0909H44.0232V54.3523H47.9436V50.0909H50.9053V61H47.9436V56.7386H44.0232V61H41.0615ZM52.3115 61V50.0909H60.1737V52.4773H55.2732V54.3523H59.7689V56.7386H55.2732V58.6136H60.1524V61H52.3115Z" fill="#E3E3DB"/>
<g id="Group 5">
<rect id="Rectangle 2" x="152" y="16" width="54" height="8" transform="rotate(-180 152 16)" fill="#E3E3DB"/>
<g id="button">
<rect id="Rectangle 3" width="9" height="5.1" transform="matrix(0.99148 0.13026 0.14867 -0.988887 140.77 8.71866)" fill="#E3E3DB"/>
<rect id="Rectangle 4" width="11.5602" height="1.87212" transform="matrix(0.99148 0.13026 0.14867 -0.988887 140 4.30081)" fill="#E3E3DB"/>
</g>
<g id="button_2">
<rect id="Rectangle 3_2" x="109.316" y="8.43375" width="9" height="5.10255" transform="rotate(172 109.316 8.43375)" fill="#E3E3DB"/>
<rect id="Rectangle 4_2" x="110.086" y="4.22482" width="11.56" height="1.87" transform="rotate(172 110.086 4.22482)" fill="#E3E3DB"/>
</g>
<rect id="Rectangle 5" x="135" y="6" width="20" height="6" transform="rotate(-180 135 6)" fill="#E3E3DB"/>
<rect id="Rectangle 6" x="132" y="9" width="14" height="5" transform="rotate(-180 132 9)" fill="#E3E3DB"/>
</g>
</g>
</svg>
